<?xml version="1.0" encoding="iso-8859-1"?>
<!-- Generator: Adobe Illustrator 19.0.0, SVG Export Plug-In . SVG Version: 6.00 Build 0)  -->
<svg xmlns="http://www.w3.org/2000/svg" xmlns:xlink="http://www.w3.org/1999/xlink" version="1.1" id="Layer_1" x="0px" y="0px" viewBox="0 0 512.007 512.007" style="enable-background:new 0 0 512.007 512.007;" xml:space="preserve">
<rect x="376.757" y="331.215" transform="matrix(0.7395 -0.6731 0.6731 0.7395 -180.1881 382.9721)" style="fill:#32BEA6;" width="55.996" height="186.195"/>
<path style="fill:#E04F5F;" d="M237.001,32.008c99.869,0,181.122,79.454,181.122,177.122s-81.245,177.122-181.122,177.122  S55.879,306.8,55.879,209.131S137.133,32.008,237.001,32.008 M237.001,0.009C120.421-1.063,25.024,92.55,23.88,209.131  c1.136,116.588,96.533,210.193,213.121,209.121c116.588,1.072,211.985-92.533,213.121-209.121  C448.987,92.55,353.59-1.063,237.001,0.009z"/>
<ellipse style="fill:#C7D5DD;" cx="237.001" cy="209.115" rx="149.979" ry="147.171"/>
<rect x="142.812" y="193.115" style="fill:#FFFFFF;" width="188.378" height="31.999"/>
<g>
</g>
<g>
</g>
<g>
</g>
<g>
</g>
<g>
</g>
<g>
</g>
<g>
</g>
<g>
</g>
<g>
</g>
<g>
</g>
<g>
</g>
<g>
</g>
<g>
</g>
<g>
</g>
<g>
</g>
</svg>
