<?xml version="1.0" encoding="iso-8859-1"?>
<!-- Generator: Adobe Illustrator 19.0.0, SVG Export Plug-In . SVG Version: 6.00 Build 0)  -->
<svg xmlns="http://www.w3.org/2000/svg" xmlns:xlink="http://www.w3.org/1999/xlink" version="1.1" id="Layer_1" x="0px" y="0px" viewBox="0 0 511.999 511.999" style="enable-background:new 0 0 511.999 511.999;" xml:space="preserve">
<rect x="376.751" y="331.209" transform="matrix(0.7395 -0.6731 0.6731 0.7395 -180.1853 382.9662)" style="fill:#32BEA6;" width="55.995" height="186.192"/>
<path style="fill:#E04F5F;" d="M236.998,32.008c99.867,0,181.12,79.452,181.12,177.12s-81.244,177.12-181.12,177.12  s-181.12-79.452-181.12-177.12S137.13,32.008,236.998,32.008 M236.998,0.009C120.419-1.063,25.024,92.549,23.88,209.127  c1.136,116.587,96.531,210.19,213.118,209.118c116.587,1.072,211.982-92.532,213.118-209.118  C448.98,92.549,353.584-1.063,236.998,0.009z"/>
<ellipse style="fill:#C7D5DD;" cx="236.998" cy="209.111" rx="149.977" ry="147.169"/>
<g>
	<rect x="142.81" y="193.112" style="fill:#FFFFFF;" width="188.375" height="31.999"/>
	<rect x="221.006" y="114.948" style="fill:#FFFFFF;" width="31.999" height="188.367"/>
</g>
<g>
</g>
<g>
</g>
<g>
</g>
<g>
</g>
<g>
</g>
<g>
</g>
<g>
</g>
<g>
</g>
<g>
</g>
<g>
</g>
<g>
</g>
<g>
</g>
<g>
</g>
<g>
</g>
<g>
</g>
</svg>
