<?xml version="1.0" encoding="iso-8859-1"?>
<!-- Generator: Adobe Illustrator 19.0.0, SVG Export Plug-In . SVG Version: 6.00 Build 0)  -->
<svg xmlns="http://www.w3.org/2000/svg" xmlns:xlink="http://www.w3.org/1999/xlink" version="1.1" id="Layer_1" x="0px" y="0px" viewBox="0 0 511.973 511.973" style="enable-background:new 0 0 511.973 511.973;" xml:space="preserve">
<rect x="376.715" y="331.172" transform="matrix(0.7396 -0.6731 0.6731 0.7396 -180.1691 382.8959)" style="fill:#32BEA6;" width="56" height="186.201"/>
<path style="fill:#E04F5F;" d="M237,32.008c99.869,0,181.122,79.454,181.122,177.122S336.877,386.253,237,386.253  S55.885,306.8,55.885,209.131S137.131,32.008,237,32.008 M237,0.009C120.419-1.055,25.022,92.55,23.886,209.131  C25.022,325.711,120.419,419.316,237,418.252c116.588,1.072,211.985-92.533,213.121-209.121C448.985,92.55,353.58-1.063,237,0.009z"/>
<ellipse style="fill:#F2B851;" cx="237" cy="209.115" rx="149.979" ry="147.171"/>
<g>
</g>
<g>
</g>
<g>
</g>
<g>
</g>
<g>
</g>
<g>
</g>
<g>
</g>
<g>
</g>
<g>
</g>
<g>
</g>
<g>
</g>
<g>
</g>
<g>
</g>
<g>
</g>
<g>
</g>
</svg>
