<?xml version="1.0" encoding="iso-8859-1"?>
<!-- Generator: Adobe Illustrator 19.0.0, SVG Export Plug-In . SVG Version: 6.00 Build 0)  -->
<svg xmlns="http://www.w3.org/2000/svg" xmlns:xlink="http://www.w3.org/1999/xlink" version="1.1" id="Layer_1" x="0px" y="0px" viewBox="0 0 512 512" style="enable-background:new 0 0 512 512;" xml:space="preserve">
<path style="fill:#F2B851;" d="M256,32c75.88,0,137.6,64.6,137.6,144c0,4.416-0.192,8.864-0.568,13.232l-1.96,22.608  C377.368,272.8,310.712,380.848,256,457.888C201.264,381.032,134.672,273.144,120.936,212l-1.976-22.76  c-0.376-4.368-0.568-8.8-0.568-13.232c0-79.4,61.728-144,137.6-144 M255.992,0.008C162.328,0,86.4,78.8,86.4,176  c0,5.392,0.232,10.728,0.688,16H86.4c0,96.712,169.6,320,169.6,320s169.6-223.816,169.6-320h-0.688c0.456-5.272,0.688-10.6,0.688-16  C425.6,78.8,349.672,0,256,0L255.992,0.008z"/>
<ellipse style="fill:#415E72;" cx="256" cy="164.112" rx="70.912" ry="70.912"/>
<g>
</g>
<g>
</g>
<g>
</g>
<g>
</g>
<g>
</g>
<g>
</g>
<g>
</g>
<g>
</g>
<g>
</g>
<g>
</g>
<g>
</g>
<g>
</g>
<g>
</g>
<g>
</g>
<g>
</g>
</svg>
