<?xml version="1.0" encoding="iso-8859-1"?>
<!-- Generator: Adobe Illustrator 19.0.0, SVG Export Plug-In . SVG Version: 6.00 Build 0)  -->
<svg xmlns="http://www.w3.org/2000/svg" xmlns:xlink="http://www.w3.org/1999/xlink" version="1.1" id="Layer_1" x="0px" y="0px" viewBox="0 0 511.999 511.999" style="enable-background:new 0 0 511.999 511.999;" xml:space="preserve">
<path style="fill:#C7D5DD;" d="M401.994,104.885h-5.935c-5.511-39.092-41.676-66.322-80.768-60.802  c-4.872,0.688-9.663,1.88-14.295,3.544c-35.797-50.739-105.95-62.85-156.689-27.053c-28.077,19.806-45.556,51.363-47.452,85.672  C37.252,112.804-5.76,166.439,0.8,226.049c6.127,55.683,53.603,97.567,109.606,96.695h291.589  c60.162,0.512,109.35-47.836,109.862-107.998c0.512-60.162-47.836-109.35-107.998-109.862  C403.242,104.885,402.618,104.885,401.994,104.885z"/>
<rect x="240.217" y="206.275" style="fill:#415E72;" width="31.997" height="160.785"/>
<polygon style="fill:#25B6D2;" points="165.608,362.101 256.2,511.999 346.791,362.101 "/>
<polygon style="fill:#36C9DD;" points="256.2,362.101 256.2,511.999 346.791,362.101 "/>
<g>
</g>
<g>
</g>
<g>
</g>
<g>
</g>
<g>
</g>
<g>
</g>
<g>
</g>
<g>
</g>
<g>
</g>
<g>
</g>
<g>
</g>
<g>
</g>
<g>
</g>
<g>
</g>
<g>
</g>
</svg>
