<?xml version="1.0" encoding="iso-8859-1"?>
<!-- Generator: Adobe Illustrator 19.0.0, SVG Export Plug-In . SVG Version: 6.00 Build 0)  -->
<svg xmlns="http://www.w3.org/2000/svg" xmlns:xlink="http://www.w3.org/1999/xlink" version="1.1" id="Layer_1" x="0px" y="0px" viewBox="0 0 512 512" style="enable-background:new 0 0 512 512;" xml:space="preserve">
<path style="fill:#C7D5DD;" d="M255.832,24.016c128.124,0.096,231.912,104.028,231.816,232.152S383.62,488.08,255.496,487.984  C127.444,487.888,23.68,384.052,23.68,256C23.872,127.892,127.724,24.112,255.832,24.016 M255.832,0  C114.443,0.096-0.096,114.779,0,256.168S114.779,512.096,256.168,512C397.485,511.904,512,397.317,512,256  C511.952,114.571,397.261-0.048,255.832,0z"/>
<polygon style="fill:#E04F5F;" points="235.29,392.169 114.171,297.819 148.61,253.614 222.986,311.556 345.739,134.424   391.801,166.333 "/>
<g>
</g>
<g>
</g>
<g>
</g>
<g>
</g>
<g>
</g>
<g>
</g>
<g>
</g>
<g>
</g>
<g>
</g>
<g>
</g>
<g>
</g>
<g>
</g>
<g>
</g>
<g>
</g>
<g>
</g>
</svg>
